<svg id="XMLID_2036_" xmlns="http://www.w3.org/2000/svg" width="121.858" height="121.858" viewBox="0 0 121.858 121.858">
  <g id="XMLID_1417_">
    <path id="XMLID_1426_" d="M272.636,186.333A21.74,21.74,0,0,0,294.214,167h1.692a2.38,2.38,0,0,0,2.38-2.38,25.68,25.68,0,0,0-25.65-25.65,2.38,2.38,0,0,0-2.38,2.38v1.692a21.709,21.709,0,0,0,2.38,43.287Zm2.38-42.465a20.93,20.93,0,0,1,18.376,18.376H275.016Zm-4.76,15.01-7.8-7.8a16.863,16.863,0,0,1,7.8-3.235Zm-11.164-4.432,11.86,11.86a2.373,2.373,0,0,0,1.683.7h16.779a16.947,16.947,0,1,1-30.322-12.558Z" transform="translate(-191.205 -105.898)" fill="#52c9fe"/>
    <path id="XMLID_1444_" d="M181.668,186.04h-15.2a2.38,2.38,0,0,0,0,4.76h15.2a2.38,2.38,0,0,0,0-4.76Z" transform="translate(-125.033 -141.762)" fill="#52c9fe"/>
    <path id="XMLID_1445_" d="M115.468,142.8h27.34a2.38,2.38,0,1,0,0-4.76h-27.34a2.38,2.38,0,1,0,0,4.76Z" transform="translate(-86.173 -105.186)" fill="#52c9fe"/>
    <path id="XMLID_1447_" d="M75.47,142.8a2.377,2.377,0,1,0-1.685-.7A2.4,2.4,0,0,0,75.47,142.8Z" transform="translate(-55.694 -105.186)" fill="#52c9fe"/>
    <path id="XMLID_1503_" d="M64.466,239.863H98.739a2.38,2.38,0,0,0,2.38-2.38V225.806a2.38,2.38,0,0,0-2.38-2.38H89.694v-5.5a2.38,2.38,0,0,0-2.38-2.38H78.27V211.6a2.38,2.38,0,0,0-2.38-2.38H64.466a2.38,2.38,0,0,0-2.38,2.38v25.88A2.38,2.38,0,0,0,64.466,239.863Zm31.893-11.677V235.1H89.694v-6.917Zm-11.424-7.878v14.8H78.27V220.309h6.664Zm-18.088-6.325H73.51V235.1H66.846Z" transform="translate(-47.309 -159.427)" fill="#52c9fe"/>
    <path id="XMLID_1516_" d="M119.478,0H2.38A2.38,2.38,0,0,0,0,2.38V15.708a2.38,2.38,0,0,0,2.38,2.38V92.821a7.148,7.148,0,0,0,7.14,7.14H58.549v6.07a8.092,8.092,0,1,0,4.76,0v-6.07h49.029a7.148,7.148,0,0,0,7.14-7.14V18.088a2.38,2.38,0,0,0,2.38-2.38V2.38A2.38,2.38,0,0,0,119.478,0ZM60.929,117.1a3.332,3.332,0,1,1,3.332-3.332A3.336,3.336,0,0,1,60.929,117.1ZM4.76,4.76H117.1v8.568H4.76ZM114.718,92.821a2.383,2.383,0,0,1-2.38,2.38H9.52a2.383,2.383,0,0,1-2.38-2.38V18.088H114.718Z" fill="#52c9fe"/>
  </g>
</svg>
