<svg id="smartphone" xmlns="http://www.w3.org/2000/svg" width="114.245" height="114.249" viewBox="0 0 114.245 114.249">
  <path id="Path_435" data-name="Path 435" d="M69.353,0H21.388A8.4,8.4,0,0,0,13,8.388v97.472a8.4,8.4,0,0,0,8.388,8.39H69.351a8.4,8.4,0,0,0,8.39-8.388V8.388A8.4,8.4,0,0,0,69.353,0ZM16.808,15.233H73.933V87.591H16.808ZM21.388,3.808H69.351a4.585,4.585,0,0,1,4.581,4.579v3.037H16.808V8.388A4.585,4.585,0,0,1,21.388,3.808ZM69.353,110.441H21.388a4.585,4.585,0,0,1-4.579-4.579V91.4H73.933v14.462A4.585,4.585,0,0,1,69.353,110.441Z" transform="translate(11.752)" fill="#52c9fe"/>
  <path id="Path_436" data-name="Path 436" d="M33.617,49a7.617,7.617,0,1,0,7.617,7.617A7.624,7.624,0,0,0,33.617,49Zm0,11.425a3.808,3.808,0,1,1,3.808-3.808A3.812,3.812,0,0,1,33.617,60.425Z" transform="translate(23.506 44.303)" fill="#52c9fe"/>
  <path id="Path_437" data-name="Path 437" d="M26.9,6.808h7.617a1.9,1.9,0,1,0,0-3.808H26.9a1.9,1.9,0,0,0,0,3.808Z" transform="translate(22.602 2.712)" fill="#52c9fe"/>
  <path id="Path_438" data-name="Path 438" d="M33.9,6.808h1.9a1.9,1.9,0,1,0,0-3.808H33.9a1.9,1.9,0,0,0,0,3.808Z" transform="translate(28.931 2.712)" fill="#52c9fe"/>
  <path id="Path_439" data-name="Path 439" d="M58.156,4.834a1.9,1.9,0,0,0-2.692,2.692,18.269,18.269,0,0,1,0,25.805,1.9,1.9,0,1,0,2.692,2.692A22.079,22.079,0,0,0,58.156,4.834Z" transform="translate(49.64 3.866)" fill="#52c9fe"/>
  <path id="Path_440" data-name="Path 440" d="M53.945,7.11A1.9,1.9,0,0,0,51.252,9.8a12.506,12.506,0,0,1,0,17.665,1.9,1.9,0,1,0,2.692,2.692,16.313,16.313,0,0,0,0-23.05Z" transform="translate(45.833 5.924)" fill="#52c9fe"/>
  <path id="Path_441" data-name="Path 441" d="M9.143,7.527A1.9,1.9,0,1,0,6.45,4.834a22.08,22.08,0,0,0,0,31.19,1.9,1.9,0,0,0,2.692-2.692A18.265,18.265,0,0,1,9.143,7.527Z" transform="translate(-0.001 3.866)" fill="#52c9fe"/>
  <path id="Path_442" data-name="Path 442" d="M12.555,6.834a1.9,1.9,0,0,0-2.692,0,16.313,16.313,0,0,0,0,23.05,1.9,1.9,0,1,0,2.692-2.692,12.506,12.506,0,0,1,0-17.665A1.905,1.905,0,0,0,12.555,6.834Z" transform="translate(4.605 5.674)" fill="#52c9fe"/>
</svg>
