<svg id="social-media" xmlns="http://www.w3.org/2000/svg" width="114.242" height="114.242" viewBox="0 0 114.242 114.242">
  <g id="Group_703" data-name="Group 703" transform="translate(38.081 9.52)">
    <g id="Group_702" data-name="Group 702">
      <rect id="Rectangle_641" data-name="Rectangle 641" width="38.081" height="3.808" fill="#52c9fe"/>
    </g>
  </g>
  <g id="Group_705" data-name="Group 705" transform="translate(24.752 38.081)">
    <g id="Group_704" data-name="Group 704">
      <path id="Path_443" data-name="Path 443" d="M173.5,193.321a6.672,6.672,0,0,0-6.664-6.664h-3.808V160h-3.808v26.656h-4.76a6.654,6.654,0,0,0-4.649,11.424,6.585,6.585,0,0,0-1,8.251,6.659,6.659,0,0,0-3.87,6.029,6.586,6.586,0,0,0,.669,2.856H130.656a17.128,17.128,0,0,0-7.367-14.072,11.443,11.443,0,0,0,7.367-10.68,1.9,1.9,0,0,0-1.9-1.9H113.52V169.52h-3.808v19.04A5.718,5.718,0,0,0,104,194.273v41.889h3.808V194.273a1.906,1.906,0,0,1,1.9-1.9h16.894a7.628,7.628,0,0,1-7.374,5.712H113.52a1.9,1.9,0,0,0,0,3.808,13.344,13.344,0,0,1,13.328,13.328v1.9a1.9,1.9,0,0,0,1.9,1.9h11.141a6.586,6.586,0,0,0-.669,2.856,6.672,6.672,0,0,0,6.664,6.664v7.616H149.7v-7.616h8.568a6.672,6.672,0,0,0,6.664-6.664,6.583,6.583,0,0,0-.683-2.883,6.613,6.613,0,0,0,5.382-10.128,6.631,6.631,0,0,0,1.855-10.789A6.637,6.637,0,0,0,173.5,193.321Zm-15.232,31.417H145.889a2.856,2.856,0,1,1,0-5.712h12.376a2.856,2.856,0,1,1,0,5.712Zm5.712-9.52H151.6a2.856,2.856,0,0,1,0-5.712h12.376a2.856,2.856,0,1,1,0,5.712Zm2.856-9.52H154.457a2.856,2.856,0,0,1,0-5.712h12.376a2.856,2.856,0,0,1,0,5.712Zm0-9.52H154.457a2.856,2.856,0,1,1,0-5.712h12.376a2.856,2.856,0,1,1,0,5.712Z" transform="translate(-104 -160)" fill="#52c9fe"/>
    </g>
  </g>
  <g id="Group_707" data-name="Group 707" transform="translate(7.616 17.136)">
    <g id="Group_706" data-name="Group 706">
      <path id="Path_444" data-name="Path 444" d="M52.939,79.1a1.9,1.9,0,0,0-.748-1.382l-1.982-1.5a5.2,5.2,0,0,0-10.3.951,11.052,11.052,0,0,1-4.277-1.726l-.664-.448A1.9,1.9,0,0,0,32,76.569v1.562a11,11,0,0,0,1.975,6.321L32.55,85.894A1.9,1.9,0,0,0,33.9,89.136H43.13a7.208,7.208,0,0,0,7.131-6.4l2.133-2.158A1.906,1.906,0,0,0,52.939,79.1ZM47.05,80.563A1.9,1.9,0,0,0,46.5,81.9a3.4,3.4,0,0,1-3.369,3.427H38.287a1.907,1.907,0,0,0-.392-2.1,7.282,7.282,0,0,1-1.846-3.253,14.809,14.809,0,0,0,5.766,1.164,1.9,1.9,0,0,0,1.9-1.9v-2a1.391,1.391,0,1,1,2.782,0,1.905,1.905,0,0,0,.753,1.517l.908.687Z" transform="translate(-32 -72)" fill="#52c9fe"/>
    </g>
  </g>
  <g id="Group_709" data-name="Group 709" transform="translate(51.409 28.56)">
    <g id="Group_708" data-name="Group 708">
      <path id="Path_445" data-name="Path 445" d="M227.424,123.808V120h-5.712a1.9,1.9,0,0,0-1.9,1.9v5.712H216v3.808h3.808v7.616h3.808v-7.616h3.808v-3.808h-3.808v-3.808Z" transform="translate(-216 -120)" fill="#52c9fe"/>
    </g>
  </g>
  <g id="Group_711" data-name="Group 711" transform="translate(39.985 20.944)">
    <g id="Group_710" data-name="Group 710">
      <path id="Path_446" data-name="Path 446" d="M196.56,88H173.712A5.718,5.718,0,0,0,168,93.712V116.56a5.718,5.718,0,0,0,5.712,5.712H196.56a5.718,5.718,0,0,0,5.712-5.712V93.712A5.718,5.718,0,0,0,196.56,88Zm1.9,28.56a1.906,1.906,0,0,1-1.9,1.9H173.712a1.906,1.906,0,0,1-1.9-1.9V93.712a1.906,1.906,0,0,1,1.9-1.9H196.56a1.906,1.906,0,0,1,1.9,1.9Z" transform="translate(-168 -88)" fill="#52c9fe"/>
    </g>
  </g>
  <g id="Group_713" data-name="Group 713" transform="translate(0 9.52)">
    <g id="Group_712" data-name="Group 712">
      <path id="Path_447" data-name="Path 447" d="M28.56,40H5.712A5.718,5.718,0,0,0,0,45.712V68.56a5.718,5.718,0,0,0,5.712,5.712H28.56a5.718,5.718,0,0,0,5.712-5.712V45.712A5.718,5.718,0,0,0,28.56,40Zm1.9,28.56a1.906,1.906,0,0,1-1.9,1.9H5.712a1.906,1.906,0,0,1-1.9-1.9V45.712a1.906,1.906,0,0,1,1.9-1.9H28.56a1.906,1.906,0,0,1,1.9,1.9Z" transform="translate(0 -40)" fill="#52c9fe"/>
    </g>
  </g>
  <g id="Group_715" data-name="Group 715" transform="translate(79.969)">
    <g id="Group_714" data-name="Group 714">
      <path id="Path_448" data-name="Path 448" d="M364.56,0H341.712A5.718,5.718,0,0,0,336,5.712V28.56a5.718,5.718,0,0,0,5.712,5.712H364.56a5.718,5.718,0,0,0,5.712-5.712V5.712A5.718,5.718,0,0,0,364.56,0Zm1.9,28.56a1.906,1.906,0,0,1-1.9,1.9H341.712a1.906,1.906,0,0,1-1.9-1.9V19.04h4a9.52,9.52,0,0,0,18.655,0h4Zm-19.04-11.424a5.712,5.712,0,1,1,5.712,5.712A5.718,5.718,0,0,1,347.424,17.136Zm19.04-1.9h-4a9.52,9.52,0,0,0-18.655,0h-4V5.712a1.906,1.906,0,0,1,1.9-1.9H364.56a1.906,1.906,0,0,1,1.9,1.9Z" transform="translate(-336)" fill="#52c9fe"/>
    </g>
  </g>
  <g id="Group_717" data-name="Group 717" transform="translate(55.217 78.065)">
    <g id="Group_716" data-name="Group 716">
      <rect id="Rectangle_642" data-name="Rectangle 642" width="3.808" height="3.808" fill="#52c9fe"/>
    </g>
  </g>
</svg>
