<svg id="work" xmlns="http://www.w3.org/2000/svg" width="114.242" height="114.242" viewBox="0 0 114.242 114.242">
  <g id="Group_719" data-name="Group 719" transform="translate(30.464 79.969)">
    <g id="Group_718" data-name="Group 718">
      <path id="Path_450" data-name="Path 450" d="M203.971,355.214a9.419,9.419,0,0,0,2.094-5.885V345.52a9.52,9.52,0,0,0-19.04,0v3.808a9.419,9.419,0,0,0,2.094,5.885,9.5,9.5,0,0,0-5.9,3.694,9.5,9.5,0,0,0-5.9-3.694,9.419,9.419,0,0,0,2.094-5.885V345.52a9.52,9.52,0,0,0-19.04,0v3.808a9.419,9.419,0,0,0,2.094,5.885,9.5,9.5,0,0,0-5.9,3.694,9.5,9.5,0,0,0-5.9-3.694,9.419,9.419,0,0,0,2.094-5.885V345.52a9.52,9.52,0,0,0-19.04,0v3.808a9.419,9.419,0,0,0,2.094,5.885A9.52,9.52,0,0,0,128,364.56v5.712h3.808V364.56a5.712,5.712,0,0,1,5.712-5.712h11.424a5.712,5.712,0,0,1,5.712,5.712v5.712h3.808V364.56a5.712,5.712,0,0,1,5.712-5.712H175.6a5.712,5.712,0,0,1,5.712,5.712v5.712h3.808V364.56a5.712,5.712,0,0,1,5.712-5.712h11.424a5.712,5.712,0,0,1,5.712,5.712v5.712h3.808V364.56A9.52,9.52,0,0,0,203.971,355.214Zm-55.026-5.885a5.712,5.712,0,1,1-11.424,0V345.52a5.712,5.712,0,0,1,11.424,0Zm26.656,0a5.712,5.712,0,1,1-11.424,0V345.52a5.712,5.712,0,1,1,11.424,0Zm26.656,0a5.712,5.712,0,1,1-11.424,0V345.52a5.712,5.712,0,1,1,11.424,0Z" transform="translate(-128 -336)" fill="#52c9fe"/>
    </g>
  </g>
  <g id="Group_721" data-name="Group 721" transform="translate(0 19.04)">
    <g id="Group_720" data-name="Group 720">
      <path id="Path_451" data-name="Path 451" d="M46.393,99.173a1.9,1.9,0,0,0-.7-.133H38.081a1.9,1.9,0,0,0-1.79,1.253l-2.018,5.55-.067-.181a10.091,10.091,0,0,0-9.454-6.622H24.7a9.421,9.421,0,0,0,1.954-5.712V89.52a9.52,9.52,0,1,0-19.04,0v3.808A9.421,9.421,0,0,0,9.57,99.04H9.52A9.532,9.532,0,0,0,0,108.56v22.848a1.9,1.9,0,0,0,1.9,1.9H7.616v18.469l-3.488,5.227a1.9,1.9,0,0,0,1.584,2.961H28.56a1.9,1.9,0,0,0,1.584-2.961l-3.488-5.227V116.626l.48.952a7.786,7.786,0,0,0,14.191-.59l3.092-7.728,3.046-7.616A1.9,1.9,0,0,0,46.393,99.173ZM11.424,89.52a5.712,5.712,0,1,1,11.424,0v3.808a5.712,5.712,0,0,1-11.424,0ZM7.616,129.5H3.808V125.7H7.616ZM19.04,156.161V133.313H15.232v22.848H9.271L11.1,153.41a1.917,1.917,0,0,0,.32-1.057V129.5H22.848v22.848a1.917,1.917,0,0,0,.32,1.057L25,156.161Zm18.751-40.579a3.977,3.977,0,0,1-7.249.3l-4.077-8.174a1.9,1.9,0,0,0-3.618.851V125.7H11.424V108.56a1.9,1.9,0,0,0-3.808,0v13.328H3.808V108.56a5.712,5.712,0,0,1,5.712-5.712h5.712v19.04H19.04v-19.04h5.712a6.268,6.268,0,0,1,5.874,4.115l1.856,5.1a1.9,1.9,0,0,0,3.58,0l.583-1.6h3.193Zm3.57-8.926H38.029l1.384-3.808h3.471Z" transform="translate(0 -80)" fill="#52c9fe"/>
    </g>
  </g>
  <g id="Group_723" data-name="Group 723" transform="translate(30.464)">
    <g id="Group_722" data-name="Group 722">
      <path id="Path_452" data-name="Path 452" d="M209.873,11.424a1.9,1.9,0,0,0,1.9-1.9V1.9a1.9,1.9,0,0,0-1.9-1.9H129.9A1.9,1.9,0,0,0,128,1.9V9.52a1.9,1.9,0,0,0,1.9,1.9h1.9V34.273h3.808V11.424h68.545V53.313H143.232v3.808h24.752v8.416L155.608,72.6,157.5,75.91l10.487-5.988v6.24h3.808v-6.24l10.472,5.988,1.889-3.305-12.361-7.068V57.121h39.985V53.313h-3.808V11.424ZM131.808,7.616V3.808h76.161V7.616Z" transform="translate(-128)" fill="#52c9fe"/>
    </g>
  </g>
  <g id="Group_725" data-name="Group 725" transform="translate(50.303 19.097)">
    <g id="Group_724" data-name="Group 724">
      <path id="Path_453" data-name="Path 453" d="M254.81,82.144l-7.616-1.9-.925,3.694,3.566.891L235.383,94.941l-8.406-6.725a1.9,1.9,0,0,0-2.3-.061l-13.328,9.52,2.212,3.1,12.157-8.682,8.395,6.717a1.9,1.9,0,0,0,2.285.072l16.041-11.23v3.958h3.808V83.991A1.9,1.9,0,0,0,254.81,82.144Z" transform="translate(-211.352 -80.24)" fill="#52c9fe"/>
    </g>
  </g>
</svg>
