<svg id="surface1" xmlns="http://www.w3.org/2000/svg" width="121.858" height="121.858" viewBox="0 0 121.858 121.858">
  <path id="Path_449" data-name="Path 449" d="M116.362,19.992H91.393a1.785,1.785,0,0,0,0,3.57h24.968a1.928,1.928,0,0,1,1.926,1.926V94.227a1.928,1.928,0,0,1-1.926,1.926H5.5A1.928,1.928,0,0,1,3.57,94.227V25.489A1.928,1.928,0,0,1,5.5,23.562H44.715v3.57H8.925A1.784,1.784,0,0,0,7.14,28.917V76.082a1.785,1.785,0,1,0,3.57,0V30.7h34v9.576l-7.642,3.651a1.8,1.8,0,0,0-1.015,1.611V74.651a1.786,1.786,0,0,0,1.015,1.611l23.086,11.03a1.81,1.81,0,0,0,1.54,0l12.979-6.2a1.785,1.785,0,1,0-1.54-3.221L62.714,82.85V57.7L82.23,48.371V73.526l-2.652,1.266a1.785,1.785,0,0,0,1.539,3.221l3.668-1.752A1.786,1.786,0,0,0,85.8,74.651V45.541a1.8,1.8,0,0,0-1.015-1.611l-7.642-3.651V30.7h34V89.013H10.71V83.7a1.785,1.785,0,0,0-3.57,0v7.1a1.784,1.784,0,0,0,1.785,1.785H112.933a1.784,1.784,0,0,0,1.785-1.785V28.917a1.784,1.784,0,0,0-1.785-1.785H77.143v-3.57h6.634a1.785,1.785,0,0,0,0-3.57H77.143v-3.57H93.149a1.784,1.784,0,0,0,1.785-1.785V10.4a5.355,5.355,0,1,0-3.57,0v2.449H75.358a1.784,1.784,0,0,0-1.785,1.785v5.355H62.714V10.4a5.355,5.355,0,1,0-3.57,0v9.589H48.285V14.637A1.784,1.784,0,0,0,46.5,12.852H30.494V10.4a5.355,5.355,0,1,0-3.57,0v4.234a1.784,1.784,0,0,0,1.785,1.785H44.715v3.57H5.5a5.5,5.5,0,0,0-5.5,5.5V94.227a5.5,5.5,0,0,0,5.5,5.5H44.2a17.013,17.013,0,0,1-6.385,11.424H30.226a5.355,5.355,0,0,0,0,10.71h61.4a5.355,5.355,0,0,0,0-10.71h-7.58a17.181,17.181,0,0,1-6.388-11.424h38.7a5.5,5.5,0,0,0,5.5-5.5V25.489A5.5,5.5,0,0,0,116.362,19.992ZM93.149,3.57a1.785,1.785,0,1,1-1.785,1.785A1.787,1.787,0,0,1,93.149,3.57Zm-32.22,0a1.785,1.785,0,1,1-1.785,1.785A1.787,1.787,0,0,1,60.929,3.57Zm-32.22,0a1.785,1.785,0,1,1-1.785,1.785A1.787,1.787,0,0,1,28.709,3.57ZM48.285,30.7H59.144v2.682L48.285,38.573ZM79.874,45.541,60.929,54.591,41.984,45.541l18.945-9.052ZM39.628,48.371,59.144,57.7V82.85L39.628,73.526Zm33.945-9.8L62.714,33.385V30.7H73.573Zm0-15.011v3.57H62.714v-3.57Zm-14.429,0v3.57H48.285v-3.57ZM93.417,116.5a1.787,1.787,0,0,1-1.785,1.785h-61.4a1.785,1.785,0,1,1,0-3.57h61.4A1.787,1.787,0,0,1,93.417,116.5Zm-14.485-5.355H42.926a20.132,20.132,0,0,0,4.86-11.424H74.072A20.131,20.131,0,0,0,78.932,111.148Zm0,0" fill="#52c9fe"/>
</svg>
