<svg xmlns="http://www.w3.org/2000/svg" width="116" height="38.486" viewBox="0 0 116 38.486">
  <g id="Layer_x0020_1" transform="translate(-66.72 -1377)">
    <path id="Path_1" data-name="Path 1" d="M1204.855,1417.612a17.03,17.03,0,0,0-.708-1.6,17.392,17.392,0,0,0-1.981-3.214,11.681,11.681,0,0,0-3.377-2.883,18.12,18.12,0,0,0-2.557-1.187c-.892-.341-1.8-.641-2.712-.912a.51.51,0,0,0-.307-.042c.47.845.934,1.679,1.4,2.51.486.868.981,1.73,1.431,2.618a13.8,13.8,0,0,1,1.242,3.37,13.078,13.078,0,0,1,.265,2.836,22.109,22.109,0,0,1-.239,2.883c-.113.808-.257,1.61-.42,2.41a.26.26,0,0,1-.2.23,14.041,14.041,0,0,1-2.843.579,14.2,14.2,0,0,1-1.709.047,12.812,12.812,0,0,1-3.363-.509,13.178,13.178,0,0,1-2.581-1.026,13.962,13.962,0,0,1-5.085-4.576,13.647,13.647,0,0,1-1.5-3,14.045,14.045,0,0,1-.754-3.458,12.815,12.815,0,0,1,.083-2.991,13.94,13.94,0,0,1,.782-3.061,13.781,13.781,0,0,1,3.933-5.551,13.4,13.4,0,0,1,3.076-1.976,14.053,14.053,0,0,1,2.955-.987,13.523,13.523,0,0,1,4.017-.262,13.287,13.287,0,0,1,3.271.684,13.777,13.777,0,0,1,5,3.029,13.527,13.527,0,0,1,2.334,2.913,13.924,13.924,0,0,1,1.667,4.269,13.662,13.662,0,0,1,.262,3.719,13.2,13.2,0,0,1-.819,3.83c-.167.425-.351.845-.565,1.306Z" transform="translate(-1077.919 -20.174)" fill="#d82819" fill-rule="evenodd"/>
    <path id="Path_2" data-name="Path 2" d="M310.651,1646.045c0-2.378.009-4.756,0-7.133-.005-.945-.032-1.892-.106-2.836-.014-.163,0-.232.2-.23,1.162.012,2.324.01,3.486,0,.171,0,.2.057.217.215.054.7.123,1.389.188,2.082,0,.042-.018.1.047.118s.079-.039.1-.077a5.636,5.636,0,0,1,1.664-1.745,5.431,5.431,0,0,1,2.02-.836,5.589,5.589,0,0,1,2.742.126,4.774,4.774,0,0,1,2.739,2.159,8.179,8.179,0,0,1,1.039,3.135,8.623,8.623,0,0,1,.1,1.283q0,5.652.005,11.3c0,.166-.054.2-.2.2-1.357-.005-2.713-.007-4.07,0-.175,0-.206-.057-.206-.217q.008-5.118,0-10.236a6.99,6.99,0,0,0-.25-2.027,2.479,2.479,0,0,0-1.431-1.771,2.329,2.329,0,0,0-1.688-.023,3,3,0,0,0-1.884,2.084,5.4,5.4,0,0,0-.2,1.625v10.3c0,.29.044.264-.272.264-1.336,0-2.673,0-4.01.005-.18,0-.222-.049-.222-.225.007-2.512,0-5.024,0-7.536,0,0-.007,0-.01,0Z" transform="translate(-236.327 -250.55)" fill="#212121" fill-rule="evenodd"/>
    <g id="Component_8_1" data-name="Component 8 – 1" transform="translate(89.928 1377)">
      <path id="Path_3" data-name="Path 3" d="M828.852,1396.051q0,3.5,0,6.991c0,.163-.035.213-.206.213q-2.035-.01-4.069,0c-.173,0-.206-.054-.206-.215q.008-6.979,0-13.961c0-.257,0-.257-.26-.257-.6,0-1.209,0-1.814,0-.126,0-.176-.027-.175-.166q.007-1.592,0-3.184c0-.144.045-.18.183-.178.625.007,1.249,0,1.874.007.144,0,.2-.027.195-.187a13.439,13.439,0,0,1,.119-2.367,7.263,7.263,0,0,1,1.691-3.913,5.368,5.368,0,0,1,2.482-1.557,7.742,7.742,0,0,1,3.34-.182,8.956,8.956,0,0,1,1.17.268c.084.023.123.046.114.16-.074,1.063-.2,2.121-.291,3.182-.01.116.055.269-.05.338s-.206-.062-.316-.087a3.965,3.965,0,0,0-2.159-.03,2.09,2.09,0,0,0-1.342,1.459,6.534,6.534,0,0,0-.3,1.9c-.008.275-.007.551-.029.824-.013.168.052.2.205.2.994-.007,1.988,0,2.982-.007.16,0,.2.042.2.2q-.01,1.572,0,3.144c0,.158-.049.188-.193.186-.987-.007-1.975,0-2.962-.007-.163,0-.2.049-.2.2q.008,3.514.005,7.029Z" transform="translate(-822.129 -1377)" fill="#212121" fill-rule="evenodd"/>
    </g>
    <path id="Path_4" data-name="Path 4" d="M66.723,1437.427q0-6.083,0-12.167c0-.181.044-.234.23-.232q2.023.01,4.049,0c.156,0,.2.039.2.2q-.005,12.188,0,24.375c0,.175-.057.207-.217.207q-2.015-.01-4.028,0c-.186,0-.233-.05-.232-.235q.005-6.073,0-12.146Z" transform="translate(0 -46.553)" fill="#212121" fill-rule="evenodd"/>
    <path id="Path_5" data-name="Path 5" d="M2439,2310.573c-.021.342-.005.675,0,1.006.017,1.612.012,3.223.021,4.834,0,.155-.045.2-.193.188a6.552,6.552,0,0,0-.686,0c-.146.007-.179-.046-.178-.183.007-.719,0-1.437,0-2.155q0-2.5,0-5c0-.167.04-.222.211-.213.3.013.591.009.887,0a.219.219,0,0,1,.223.126c.406.731.817,1.456,1.227,2.185.452.8.927,1.6,1.325,2.43.19.4.372.8.576,1.237-.025-.534-.048-1.028-.072-1.52-.007-.134-.022-.267-.022-.4,0-1.29,0-2.578-.007-3.867,0-.153.042-.2.193-.19.242.012.483.007.726,0,.094,0,.139.03.131.127,0,.04,0,.08,0,.121q0,3.524,0,7.049c0,.187-.032.264-.237.249a6.683,6.683,0,0,0-.766,0,.209.209,0,0,1-.22-.126c-.482-.872-.966-1.743-1.458-2.61-.447-.786-.882-1.577-1.276-2.389-.114-.234-.212-.475-.319-.714-.03-.065-.061-.127-.09-.191Z" transform="translate(-2298.397 -903.419)" fill="#52c9fe" fill-rule="evenodd"/>
    <path id="Path_6" data-name="Path 6" d="M2729.292,2380.083c0-.833,0-1.666,0-2.5,0-.15.027-.217.2-.207a6.8,6.8,0,0,0,.785,0c.172-.01.179.074.179.2,0,1.256,0,2.512,0,3.766,0,.43-.005.86,0,1.29,0,.134-.029.191-.177.187q-.4-.017-.806,0c-.146.007-.178-.049-.178-.185,0-.853,0-1.7,0-2.557Z" transform="translate(-2580.766 -969.643)" fill="#52c9fe" fill-rule="evenodd"/>
    <path id="Path_7" data-name="Path 7" d="M2727.381,2307.781a.63.63,0,0,1,.663.663.663.663,0,1,1-1.327-.018A.634.634,0,0,1,2727.381,2307.781Z" transform="translate(-2578.275 -902.182)" fill="#52c9fe" fill-rule="evenodd"/>
    <path id="Path_8" data-name="Path 8" d="M2165.455,1449.8c-.091-.779-.1-1.565-.141-2.348-.05-.97-.119-1.939-.163-2.91-.055-1.253-.127-2.5-.2-3.755-.05-.836-.094-1.674-.122-2.51-.034-.959-.116-1.912-.158-2.87-.053-1.259-.138-2.517-.2-3.775-.055-1.085-.1-2.169-.164-3.253-.059-1-.116-1.995-.156-2.992-.009-.193-.081-.21-.238-.208-1.585,0-3.171,0-4.756,0-.458,0-.455,0-.576.438q-.516,1.884-1.04,3.766c-.428,1.538-.88,3.069-1.29,4.613s-.8,3.119-1.169,4.685c-.316,1.36-.611,2.724-.87,4.1a.8.8,0,0,1-.163.473c-.015-.059-.024-.084-.029-.109-.2-1-.381-2.008-.594-3.008q-.453-2.126-.962-4.24c-.3-1.261-.633-2.512-.974-3.763-.305-1.129-.6-2.259-.9-3.389s-.593-2.262-.887-3.392a.2.2,0,0,0-.222-.175q-2.569.007-5.138,0c-.123,0-.157.037-.161.159q-.031.733-.081,1.464c-.055.783-.122,1.562-.156,2.346-.022.516-.055,1.031-.089,1.545-.062,1-.129,2-.191,3.009-.032.516-.044,1.031-.094,1.545-.073.734-.094,1.471-.146,2.207-.039.547-.052,1.1-.089,1.646-.055.789-.123,1.577-.156,2.366-.022.5-.044.991-.089,1.484-.093,1.014-.131,2.032-.192,3.049-.03.516-.045,1.031-.1,1.545-.072.74-.087,1.484-.15,2.225-.013.158.047.19.193.19q1.814-.008,3.627,0c.173,0,.21-.062.217-.222.03-.843.072-1.688.109-2.531.059-1.34.111-2.68.178-4.02.017-.328.017-.656.042-.984.1-1.244.118-2.49.187-3.736.033-.6.055-1.192.077-1.788.044-1.18.092-2.359.125-3.54.021-.8.067-1.61.052-2.416,0-.057-.025-.143.051-.156.107-.019.08.1.088.144.14.809.288,1.617.458,2.421.187.875.351,1.755.544,2.628.255,1.16.531,2.317.833,3.467.351,1.337.688,2.677,1.032,4.015.3,1.157.6,2.314.9,3.473q.35,1.358.693,2.719a.185.185,0,0,0,.215.168q1.491-.01,2.982,0c.144,0,.192-.05.227-.181.178-.643.371-1.283.552-1.926.327-1.164.648-2.329.974-3.494.317-1.139.64-2.275.957-3.414.3-1.075.6-2.148.887-3.226s.547-2.148.813-3.224c.271-1.1.541-2.206.778-3.316.019-.089.021-.2.114-.262.062.049.04.106.04.156.01.952,0,1.906.029,2.858.028,1.033.052,2.066.082,3.1.022.7.051,1.407.079,2.112.042,1.078.08,2.158.123,3.238.033.858.089,1.714.124,2.573q.066,1.587.126,3.177c.027.677.056,1.353.079,2.03,0,.108.033.159.149.158q1.965,0,3.93,0c.112,0,.154-.04.141-.158Z" transform="translate(-2012.15 -46.698)" fill="#52c9fe" fill-rule="evenodd"/>
    <path id="Path_9" data-name="Path 9" d="M2944.181,1650.511c-.015-1.29,0-2.579,0-3.869h0c0-.074,0-.148,0-.222-.037-1.6.079-3.209-.079-4.811a8.2,8.2,0,0,0-.964-3.3,5.025,5.025,0,0,0-2.423-2.171,7.577,7.577,0,0,0-3.034-.579,11.947,11.947,0,0,0-2.727.3,10.827,10.827,0,0,0-2.863,1.073.276.276,0,0,0-.166.383c.259.892.49,1.79.73,2.688.03.111.049.154.183.072a7.709,7.709,0,0,1,1.79-.8,7.234,7.234,0,0,1,2.418-.311,3.6,3.6,0,0,1,1.234.234,2.068,2.068,0,0,1,1.115.989,3.755,3.755,0,0,1,.365,1.751c0,.126-.059.141-.159.14a14.662,14.662,0,0,0-2.4.2,9.15,9.15,0,0,0-4.129,1.6,5.524,5.524,0,0,0-1.713,2.015,6.451,6.451,0,0,0-.638,3.351,5.574,5.574,0,0,0,1.32,3.377,4.5,4.5,0,0,0,1.99,1.342,5.328,5.328,0,0,0,2.95.122,5,5,0,0,0,3.054-1.995c.03-.042.051-.1.12-.088s.042.077.047.119c.066.477.138.952.193,1.431.037.317.033.324.343.324h3.406c.268,0,.272,0,.235-.269a24.244,24.244,0,0,1-.192-3.086Zm-4.312-3.711a10.759,10.759,0,0,1-.077,1.748,2.8,2.8,0,0,1-2.45,2.232,1.976,1.976,0,0,1-2.27-1.787,3.3,3.3,0,0,1,.228-1.983,2.707,2.707,0,0,1,1.315-1.273,6.089,6.089,0,0,1,2.361-.571c.227-.014.455-.029.682-.04.163-.008.222.033.217.208-.013.455,0,.912,0,1.466Z" transform="translate(-2775.99 -250.611)" fill="#52c9fe" fill-rule="evenodd"/>
    <path id="Path_10" data-name="Path 10" d="M3464.124,1413.983q-.007-12.725,0-25.448c0-.173-.037-.225-.22-.225-1.3.008-2.593,0-3.889,0-.336,0-.292-.047-.292.282q0,6.337,0,12.674,0,6.357,0,12.713c0,.178.035.238.228.238q1.964-.015,3.929,0c.189,0,.247-.042.247-.24Z" transform="translate(-3288.758 -10.963)" fill="#52c9fe" fill-rule="evenodd"/>
    <path id="Path_11" data-name="Path 11" d="M3698.859,1414.269c.18,0,.224-.048.224-.225q-.008-12.73,0-25.462c0-.171-.036-.227-.219-.225q-1.964.012-3.928,0c-.2,0-.257.039-.257.25q.01,6.345.005,12.691,0,6.365,0,12.732c0,.178.037.242.23.242Q3696.884,1414.255,3698.859,1414.269Z" transform="translate(-3516.498 -11.01)" fill="#52c9fe" fill-rule="evenodd"/>
    <path id="Path_12" data-name="Path 12" d="M2873.98,2374.06c-.249.007-.5.005-.746,0-.1,0-.126.033-.131.126-.01.189-.034.378-.055.608a2.121,2.121,0,0,0-.491-.541,2,2,0,0,0-2.675.551,3.293,3.293,0,0,0-.27,3.518,1.908,1.908,0,0,0,1.879,1.14,1.8,1.8,0,0,0,1.432-.745,5.051,5.051,0,0,1-.006.829,1.382,1.382,0,0,1-1.462,1.365,2.753,2.753,0,0,1-1.355-.312c-.131-.071-.171-.032-.2.1-.043.195-.092.391-.154.581a.147.147,0,0,0,.1.217,4.739,4.739,0,0,0,.469.177,4.278,4.278,0,0,0,1.793.082,2.092,2.092,0,0,0,1.755-1.449,4.4,4.4,0,0,0,.21-1.384c.027-1.57-.039-3.142.039-4.712,0-.1-.017-.147-.131-.146Zm-1.111,3.622a1.16,1.16,0,0,1-.969.895,1.119,1.119,0,0,1-1.17-.566,2.516,2.516,0,0,1,.055-2.613,1.118,1.118,0,0,1,1.31-.487,1.232,1.232,0,0,1,.813,1.068c.012.24,0,.482,0,.724A4.692,4.692,0,0,1,2872.869,2377.682Z" transform="translate(-2716.408 -966.323)" fill="#52c9fe" fill-rule="evenodd"/>
    <path id="Path_13" data-name="Path 13" d="M3708.4,2379.281a4.825,4.825,0,0,1-.062-.779c0-.786-.005-1.57,0-2.356a3.974,3.974,0,0,0-.091-.856,1.618,1.618,0,0,0-1.228-1.342,3.324,3.324,0,0,0-2.12.184c-.356.146-.355.154-.242.532.03.1.067.2.1.3.02.071.055.084.116.047a2.253,2.253,0,0,1,1.068-.307c.8-.049,1.219.225,1.263,1.048,0,.092-.009.153-.126.153-.146,0-.294.02-.44.029a3.39,3.39,0,0,0-1.676.487,1.706,1.706,0,0,0-.754,1.882,1.626,1.626,0,0,0,2.361,1.029,2.094,2.094,0,0,0,.711-.554,2.032,2.032,0,0,1,.09.5c0,.092.037.131.133.129.262-.005.524,0,.786,0,.09,0,.131-.012.111-.128Zm-1.394-1.038a1.176,1.176,0,0,1-1.21.376.785.785,0,0,1-.48-.637c-.077-.729.319-1.051.929-1.211a5.121,5.121,0,0,1,.833-.105c.1-.01.146.027.143.136-.007.161,0,.322,0,.484A1.4,1.4,0,0,1,3707,2378.243Z" transform="translate(-3525.684 -966.225)" fill="#52c9fe" fill-rule="evenodd"/>
    <path id="Path_14" data-name="Path 14" d="M3131.457,2374.147a2.225,2.225,0,0,0-1.719,1.5,3.6,3.6,0,0,0-.167,2.131,2.317,2.317,0,0,0,1.771,1.894,3.987,3.987,0,0,0,1.355.047,3.665,3.665,0,0,0,.932-.223c.1-.039.176-.066.123-.21a1.991,1.991,0,0,1-.108-.487c-.019-.173-.093-.167-.223-.118a3.072,3.072,0,0,1-1.518.168,1.486,1.486,0,0,1-1.3-1.454c-.015-.149.024-.21.191-.207.51.012,1.019.005,1.53.005s1.007-.008,1.509.005c.183,0,.229-.065.232-.232a4.442,4.442,0,0,0-.149-1.31A2,2,0,0,0,3131.457,2374.147Zm1.082,2.228h-.764c-.336,0-.672,0-1.006,0-.129,0-.181-.023-.148-.171a2.093,2.093,0,0,1,.349-.844,1.1,1.1,0,0,1,1.966.521C3133.051,2376.371,3133.039,2376.375,3132.539,2376.375Z" transform="translate(-2968.665 -966.467)" fill="#52c9fe" fill-rule="evenodd"/>
    <path id="Path_15" data-name="Path 15" d="M3382.464,2374.332a1.394,1.394,0,0,0-1.3.591c-.119.146-.17.329-.281.482-.072-.057-.048-.129-.05-.193-.005-.215-.008-.43-.005-.645,0-.111-.036-.153-.151-.15-.229.007-.457.012-.684,0-.149-.009-.184.05-.169.187a9.642,9.642,0,0,1,.04,1.1c0,1.322,0,2.643,0,3.967,0,.151.04.2.191.19a5.413,5.413,0,0,1,.7,0c.193.015.243-.042.245-.24.008-1.006-.065-2.013.035-3.016a1.228,1.228,0,0,1,1.433-1.19c.122.017.133-.037.133-.131,0-.268-.005-.537,0-.806C3382.6,2374.38,3382.57,2374.345,3382.464,2374.332Z" transform="translate(-3211.308 -966.681)" fill="#52c9fe" fill-rule="evenodd"/>
    <path id="Path_16" data-name="Path 16" d="M3565.938,2377.378a6.762,6.762,0,0,1-.764,0c-.169-.01-.2.057-.2.207.007.838,0,1.677,0,2.515s0,1.691,0,2.536c0,.153.042.2.193.189.26-.011.524-.013.784,0,.16.009.188-.054.187-.2-.007-.589,0-1.181,0-1.772,0-1.093,0-2.186,0-3.279C3566.142,2377.418,3566.1,2377.372,3565.938,2377.378Z" transform="translate(-3390.781 -969.643)" fill="#52c9fe" fill-rule="evenodd"/>
    <path id="Path_17" data-name="Path 17" d="M3563.138,2307.769a.627.627,0,0,0-.67.658.661.661,0,1,0,1.323,0,.629.629,0,0,0-.653-.653Z" transform="translate(-3388.349 -902.17)" fill="#52c9fe" fill-rule="evenodd"/>
  </g>
</svg>
