<svg id="facebook-logo" xmlns="http://www.w3.org/2000/svg" width="11.497" height="21.265" viewBox="0 0 11.497 21.265">
  <path id="Path_422" data-name="Path 422" d="M33.141,0,30.383,0c-3.1,0-5.1,2.054-5.1,5.233V7.646H22.511a.434.434,0,0,0-.434.434v3.5a.434.434,0,0,0,.434.434h2.773v8.821a.433.433,0,0,0,.434.434h3.617a.434.434,0,0,0,.434-.434V12.01H33.01a.433.433,0,0,0,.434-.434V8.08a.434.434,0,0,0-.434-.434H29.768V5.6c0-.983.234-1.482,1.515-1.482H33.14a.434.434,0,0,0,.433-.434V.438A.434.434,0,0,0,33.141,0Z" transform="translate(-22.077)" fill="#4e4e4e"/>
</svg>
