<svg xmlns="http://www.w3.org/2000/svg" xmlns:xlink="http://www.w3.org/1999/xlink" width="76.034" height="70.493" viewBox="0 0 76.034 70.493">
  <defs>
    <clipPath id="clip-path">
      <rect width="76.034" height="70.493" fill="none"/>
    </clipPath>
  </defs>
  <g id="mission" clip-path="url(#clip-path)">
    <path id="mission-2" data-name="mission" d="M44.69.5a1.1,1.1,0,0,0-1.1,1.1V29.264a2.634,2.634,0,0,0-.992.79L29.361,47.22l-5.322-6.9a2.224,2.224,0,0,0-3.524,0L.482,66.3a2.3,2.3,0,0,0,1.818,3.7H42.128a1.1,1.1,0,1,0,0-2.2H16.265L30.231,49.689,44.339,31.395a.443.443,0,0,1,.7,0L72.7,67.257a.334.334,0,0,1-.265.54H47.253a1.1,1.1,0,1,0,0,2.2H72.434a2.532,2.532,0,0,0,2-4.078L46.781,30.054a2.634,2.634,0,0,0-.992-.79v-12.3h3.791a1.1,1.1,0,1,0,0-2.2H45.788V4.58H60.122L56.529,8.425a1.83,1.83,0,0,0,0,2.493l3.593,3.845H54.7a1.1,1.1,0,0,0,0,2.2h6.271a1.827,1.827,0,0,0,1.334-3.072L58.371,9.671l3.939-4.215a1.828,1.828,0,0,0-1.334-3.073H45.788V1.6A1.1,1.1,0,0,0,44.69.5ZM2.221,67.637,22.254,41.661a.029.029,0,0,1,.046,0l5.674,7.357L13.491,67.8H2.3A.1.1,0,0,1,2.221,67.637Zm0,0" transform="translate(0.531)" fill="#4bc8ff" stroke="#4bc8ff" stroke-width="1"/>
  </g>
</svg>
