<svg xmlns="http://www.w3.org/2000/svg" xmlns:xlink="http://www.w3.org/1999/xlink" width="74.969" height="69.112" viewBox="0 0 74.969 69.112">
  <defs>
    <clipPath id="clip-path">
      <rect width="74.969" height="69.112" fill="none"/>
    </clipPath>
  </defs>
  <g id="XMLID_996_" clip-path="url(#clip-path)">
    <g id="XMLID_41_">
      <path id="XMLID_4218_" d="M310.271,128.7a1.464,1.464,0,0,0,2.071-2.071l-.02-.02a1.464,1.464,0,1,0-2.071,2.071Z" transform="translate(-264.457 -110.63)" fill="#4bc8ff"/>
      <path id="XMLID_4221_" d="M69.437,51.92l5.1-5.1a1.464,1.464,0,0,0-1.036-2.5H62.925A31.922,31.922,0,1,0,9.349,74.491a32.149,32.149,0,0,0,5.868,4.642l-4.411,7.793a1.464,1.464,0,0,0,1.274,2.186h7.541a1.464,1.464,0,0,0,1.274-.743l3.119-5.511a32.306,32.306,0,0,0,15.812,0l3.119,5.511a1.464,1.464,0,0,0,1.274.743h7.541a1.464,1.464,0,0,0,1.274-2.185l-4.411-7.793a32.155,32.155,0,0,0,5.868-4.642,31.812,31.812,0,0,0,8.434-14.968H73.5a1.464,1.464,0,0,0,1.036-2.5Zm-2.677-1.464H56.54l3.21-3.21H69.97ZM18.767,86.183H14.591l3.187-5.63a31.484,31.484,0,0,0,3.366,1.431Zm30.483,0H45.074l-2.377-4.2a31.484,31.484,0,0,0,3.366-1.431Zm3.171-13.763A29.122,29.122,0,0,1,46,77.276c-.029.014-.058.027-.086.043s-.034.022-.051.032A28.614,28.614,0,0,1,40.25,79.7a1.449,1.449,0,0,0-.227.066,29.276,29.276,0,0,1-16.2,0,1.453,1.453,0,0,0-.228-.066,28.611,28.611,0,0,1-5.614-2.351c-.017-.011-.033-.022-.051-.032s-.057-.029-.086-.043a29.119,29.119,0,0,1-6.42-4.856A28.992,28.992,0,1,1,59.9,44.317h-.758a1.464,1.464,0,0,0-1.035.429l-3.886,3.886a22.559,22.559,0,0,0-2.552-7.6,1.464,1.464,0,0,0-2.564,1.415,19.444,19.444,0,0,1,2.365,8.013H45.016a13.182,13.182,0,1,0,0,2.928h6.45A19.6,19.6,0,1,1,41.4,34.734a1.464,1.464,0,1,0,1.415-2.564,22.712,22.712,0,0,0-13.906-2.6A22.55,22.55,0,1,0,54.228,55.214l3.881,3.881a1.464,1.464,0,0,0,1.035.429H59.9A28.9,28.9,0,0,1,52.421,72.421ZM36.7,49.159a1.464,1.464,0,0,0-2-.536l-3.514,2.029a1.464,1.464,0,0,0,0,2.536L34.7,55.217a1.463,1.463,0,0,0,2.081-1.833h5.282a10.171,10.171,0,0,1-2.9,5.783h0a10.247,10.247,0,1,1,2.9-8.712H36.784A1.46,1.46,0,0,0,36.7,49.159ZM59.751,56.6l-3.21-3.21H66.759L69.97,56.6Z" transform="translate(0 -20)" fill="#4bc8ff"/>
    </g>
  </g>
</svg>
