<?xml version="1.0" encoding="UTF-8"?>
<!DOCTYPE svg PUBLIC "-//W3C//DTD SVG 1.1//EN" "http://www.w3.org/Graphics/SVG/1.1/DTD/svg11.dtd">
<!-- Creator: CorelDRAW -->
<svg xmlns="http://www.w3.org/2000/svg" xml:space="preserve" width="3.93701in" height="3.93701in" version="1.1" style="shape-rendering:geometricPrecision; text-rendering:geometricPrecision; image-rendering:optimizeQuality; fill-rule:evenodd; clip-rule:evenodd"
viewBox="0 0 3937.01 3937.01"
 xmlns:xlink="http://www.w3.org/1999/xlink"
 xmlns:xodm="http://www.corel.com/coreldraw/odm/2003">
 <defs>
  <style type="text/css">
   <![CDATA[
    .fil1 {fill:white}
    .fil2 {fill:#52C9FE}
    .fil0 {fill:#D82819}
   ]]>
  </style>
 </defs>
 <g id="Layer_x0020_1">
  <metadata id="CorelCorpID_0Corel-Layer"/>
  <path class="fil0" d="M2026.69 2042.26c-7.05,-18.85 -14.92,-35.58 -23.06,-52.09 -18.15,-36.89 -38.75,-72.37 -64.5,-104.61 -30.61,-38.37 -67.28,-69.52 -109.91,-93.85 -26.67,-15.25 -54.55,-27.71 -83.24,-38.64 -29.02,-11.09 -58.48,-20.88 -88.27,-29.68 -2.95,-0.87 -5.96,-2.46 -10,-1.37 15.3,27.49 30.39,54.65 45.53,81.71 15.8,28.26 31.92,56.3 46.57,85.21 17.76,35.04 32.3,71.27 40.44,109.69 6.45,30.39 8.91,61.22 8.63,92.31 -0.27,31.54 -3.39,62.69 -7.76,93.84 -3.67,26.29 -8.36,52.42 -13.67,78.43 -0.76,3.66 -1.97,6.01 -6.4,7.49 -30.11,9.89 -61.1,15.36 -92.53,18.86 -18.53,2.07 -37.11,1.69 -55.64,1.53 -37.28,-0.33 -73.68,-6.5 -109.48,-16.56 -29.19,-8.2 -57.22,-19.3 -84,-33.39 -32.8,-17.27 -63.07,-38.26 -90.78,-63.07 -28.59,-25.52 -53.45,-54.11 -74.72,-85.87 -20.39,-30.44 -36.46,-63.07 -48.86,-97.61 -13.12,-36.46 -20.93,-74.11 -24.54,-112.54 -3.06,-32.46 -1.86,-64.98 2.68,-97.34 4.81,-34.16 13.12,-67.45 25.47,-99.64 14.43,-37.77 33.78,-72.91 57.83,-105.48 20.5,-27.82 43.94,-52.85 70.18,-75.21 30.44,-25.91 63.78,-47.55 100.13,-64.33 30.88,-14.26 62.85,-24.98 96.19,-32.14 43.29,-9.35 86.85,-12.24 130.74,-8.53 36.29,3.06 71.98,10.22 106.47,22.25 61.16,21.31 115.7,54 162.76,98.6 29.63,28.09 55.04,59.63 75.97,94.83 25.8,43.34 43.78,89.47 54.28,138.94 8.47,40.06 11.15,80.51 8.53,121.06 -2.74,42.69 -11.48,84.44 -26.67,124.67 -5.41,13.83 -11.43,27.49 -18.37,42.52z"/>
  <path class="fil1" d="M314.2 1979.02c0,-77.39 0.28,-154.79 -0.11,-232.18 -0.17,-30.77 -1.04,-61.6 -3.44,-92.31 -0.44,-5.3 0.16,-7.54 6.56,-7.49 37.82,0.38 75.64,0.33 113.46,0.06 5.58,-0.06 6.67,1.86 7.05,7 1.75,22.63 3.99,45.2 6.12,67.77 0.11,1.37 -0.6,3.33 1.53,3.83 1.91,0.38 2.57,-1.26 3.33,-2.52 13.99,-22.79 32.03,-41.87 54.16,-56.79 20,-13.5 41.92,-22.57 65.75,-27.22 30.17,-5.91 60.07,-4.81 89.25,4.1 38.64,11.75 67.99,35.85 89.15,70.29 19.29,31.43 28.48,66.19 33.83,102.04 2.07,13.77 3.17,27.71 3.17,41.76 -0.05,122.65 -0.05,245.3 0.17,367.94 0,5.41 -1.75,6.39 -6.67,6.39 -44.16,-0.16 -88.32,-0.22 -132.48,0.06 -5.69,0.05 -6.72,-1.86 -6.72,-7.05 0.17,-111.06 0.06,-222.12 0.11,-333.19 0,-22.35 -1.69,-44.49 -8.14,-65.97 -7.65,-25.47 -20.22,-47.28 -46.57,-57.66 -18.15,-7.11 -36.73,-7.38 -54.93,-0.76 -32.24,11.69 -51.27,35.47 -61.32,67.83 -5.41,17.43 -6.45,35.04 -6.45,52.91 0,111.72 0,223.43 0,335.15 0,9.45 1.42,8.58 -8.85,8.58 -43.5,0.06 -87.01,-0.11 -130.52,0.17 -5.85,0.05 -7.22,-1.59 -7.22,-7.32 0.22,-81.77 0.11,-163.53 0.11,-245.3 -0.05,-0.11 -0.22,-0.11 -0.33,-0.11z"/>
  <path class="fil1" d="M1040.97 1997.11c0,75.86 -0.06,151.67 0.11,227.54 0,5.3 -1.15,6.94 -6.72,6.94 -44.16,-0.22 -88.32,-0.22 -132.43,0 -5.63,0.05 -6.72,-1.75 -6.72,-7 0.17,-151.45 0.11,-302.96 0.11,-454.41 0,-8.36 0,-8.36 -8.47,-8.36 -19.68,0 -39.35,-0.11 -59.03,0.06 -4.1,0.05 -5.74,-0.87 -5.69,-5.41 0.16,-34.54 0.16,-69.09 0,-103.63 0,-4.7 1.48,-5.85 5.96,-5.8 20.33,0.22 40.67,-0.05 61,0.22 4.7,0.06 6.45,-0.87 6.34,-6.07 -0.71,-25.8 0.05,-51.49 3.88,-77.06 7.11,-47.33 22.52,-91.17 55.04,-127.35 22.03,-24.48 49.24,-41.1 80.78,-50.67 35.8,-10.88 72.09,-10.88 108.71,-5.91 13.01,1.75 25.52,5.3 38.09,8.74 2.73,0.76 3.99,1.48 3.72,5.19 -2.41,34.6 -6.45,69.03 -9.46,103.57 -0.33,3.77 1.8,8.74 -1.64,10.99 -3.12,2.02 -6.72,-2.02 -10.28,-2.84 -23.39,-5.52 -46.95,-8.47 -70.29,-0.98 -23.28,7.43 -36.24,25.25 -43.67,47.5 -6.67,20 -9.13,40.72 -9.73,61.7 -0.27,8.96 -0.22,17.93 -0.93,26.83 -0.44,5.47 1.7,6.45 6.67,6.4 32.35,-0.22 64.71,0 97.07,-0.22 5.19,-0.06 6.5,1.37 6.5,6.5 -0.22,34.11 -0.22,68.21 0,102.32 0.05,5.14 -1.59,6.12 -6.29,6.07 -32.14,-0.22 -64.28,0.05 -96.41,-0.22 -5.3,-0.06 -6.4,1.58 -6.4,6.56 0.17,76.25 0.17,152.55 0.17,228.79z"/>
  <path class="fil1" d="M66.83 1828.61c0,-132 0.05,-264.04 -0.11,-396.04 0,-5.9 1.42,-7.6 7.49,-7.54 43.89,0.22 87.83,0.17 131.78,0 5.08,0 6.5,1.26 6.5,6.45 -0.11,264.48 -0.11,528.91 0,793.39 0,5.69 -1.86,6.72 -7.05,6.72 -43.72,-0.22 -87.45,-0.22 -131.12,0 -6.07,0.06 -7.6,-1.64 -7.54,-7.65 0.11,-131.78 0.06,-263.55 0.06,-395.33z"/>
  <path class="fil2" d="M2471.7 2358.5c-0.71,11.15 -0.17,21.97 -0.06,32.74 0.55,52.47 0.38,104.89 0.71,157.35 0.06,5.03 -1.47,6.4 -6.28,6.12 -7.43,-0.38 -14.87,-0.38 -22.3,0 -4.76,0.22 -5.85,-1.48 -5.8,-5.96 0.22,-23.39 0.11,-46.79 0.11,-70.13 0,-54.22 0.05,-108.38 -0.11,-162.6 0,-5.41 1.31,-7.21 6.89,-6.94 9.62,0.44 19.24,0.28 28.86,0.06 3.44,-0.06 5.52,0.98 7.27,4.1 13.22,23.78 26.61,47.39 39.95,71.11 14.7,26.18 30.17,51.98 43.12,79.09 6.18,12.9 12.08,25.96 18.75,40.28 -0.82,-17.38 -1.58,-33.45 -2.35,-49.46 -0.22,-4.37 -0.71,-8.69 -0.71,-13.06 -0.05,-41.98 0,-83.9 -0.22,-125.87 0,-4.98 1.37,-6.45 6.28,-6.18 7.87,0.38 15.74,0.22 23.61,0.06 3.06,-0.06 4.54,0.98 4.26,4.15 -0.11,1.31 0,2.62 0,3.93 0,76.46 -0.06,152.98 0.11,229.44 0,6.07 -1.04,8.58 -7.71,8.09 -8.25,-0.66 -16.61,-0.33 -24.93,-0.05 -3.5,0.11 -5.46,-0.98 -7.16,-4.1 -15.69,-28.37 -31.43,-56.74 -47.44,-84.94 -14.54,-25.58 -28.7,-51.32 -41.54,-77.78 -3.72,-7.6 -6.89,-15.47 -10.39,-23.23 -0.98,-2.13 -1.97,-4.15 -2.95,-6.23z"/>
  <path class="fil2" d="M2729.4 2465.46c0,-27.11 0.11,-54.22 -0.11,-81.33 -0.05,-4.87 0.87,-7.05 6.4,-6.72 8.47,0.49 17.05,0.49 25.58,0 5.57,-0.33 5.8,2.4 5.8,6.67 -0.11,40.89 -0.06,81.77 -0.06,122.59 0,13.99 -0.16,27.98 0.11,41.98 0.06,4.37 -0.93,6.23 -5.74,6.07 -8.74,-0.38 -17.49,-0.38 -26.23,0 -4.76,0.22 -5.8,-1.58 -5.8,-6.01 0.11,-27.77 0.05,-55.48 0.05,-83.24z"/>
  <path class="fil2" d="M2748.31 2307.89c12.46,-1.2 21.75,9.73 21.59,21.59 -0.17,11.97 -9.62,21.43 -21.59,21.54 -12.13,0.11 -21.43,-9.68 -21.59,-22.14 -0.17,-12.74 11.26,-22.25 21.59,-20.99z"/>
  <path class="fil2" d="M2884.95 2226.56c-2.95,-25.36 -3.22,-50.94 -4.59,-76.41 -1.64,-31.59 -3.88,-63.13 -5.3,-94.72 -1.8,-40.77 -4.15,-81.49 -6.61,-122.21 -1.64,-27.22 -3.06,-54.49 -3.99,-81.71 -1.09,-31.21 -3.77,-62.25 -5.14,-93.41 -1.75,-40.99 -4.48,-81.93 -6.56,-122.87 -1.81,-35.31 -3.28,-70.61 -5.36,-105.87 -1.91,-32.46 -3.77,-64.93 -5.08,-97.4 -0.28,-6.29 -2.63,-6.83 -7.76,-6.78 -51.59,0.16 -103.19,0.11 -154.78,0.11 -14.92,0 -14.81,0.06 -18.75,14.27 -11.2,40.88 -22.46,81.77 -33.83,122.59 -13.94,50.06 -28.64,99.91 -41.98,150.14 -13.39,50.61 -26.18,101.5 -38.04,152.49 -10.28,44.27 -19.9,88.65 -28.31,133.31 -0.93,4.92 -0.66,10.38 -5.3,15.41 -0.49,-1.91 -0.76,-2.73 -0.93,-3.55 -6.5,-32.63 -12.41,-65.37 -19.35,-97.89 -9.84,-46.13 -20.33,-92.09 -31.32,-138 -9.84,-41.05 -20.61,-81.77 -31.7,-122.48 -9.95,-36.73 -19.57,-73.51 -29.24,-110.3 -9.67,-36.78 -19.3,-73.62 -28.86,-110.41 -0.98,-3.88 -2.79,-5.69 -7.22,-5.69 -55.75,0.16 -111.5,0.16 -167.25,0 -3.99,0 -5.09,1.2 -5.25,5.19 -0.66,15.9 -1.53,31.81 -2.62,47.66 -1.8,25.47 -3.99,50.83 -5.09,76.35 -0.71,16.78 -1.8,33.56 -2.89,50.29 -2.02,32.63 -4.21,65.26 -6.23,97.94 -1.04,16.78 -1.42,33.56 -3.06,50.28 -2.35,23.89 -3.06,47.88 -4.76,71.82 -1.26,17.81 -1.69,35.74 -2.9,53.56 -1.8,25.69 -3.99,51.32 -5.08,77.01 -0.71,16.13 -1.42,32.25 -2.9,48.32 -3,33.01 -4.26,66.13 -6.23,99.25 -0.98,16.78 -1.48,33.56 -3.11,50.29 -2.35,24.1 -2.84,48.31 -4.87,72.42 -0.44,5.14 1.53,6.18 6.29,6.18 39.35,-0.17 78.7,-0.22 118.06,0 5.63,0.05 6.83,-2.02 7.05,-7.22 0.98,-27.44 2.35,-54.93 3.55,-82.37 1.91,-43.62 3.61,-87.23 5.8,-130.85 0.55,-10.66 0.55,-21.37 1.37,-32.03 3.28,-40.5 3.83,-81.06 6.07,-121.61 1.09,-19.4 1.8,-38.8 2.51,-58.21 1.42,-38.42 3.01,-76.79 4.05,-115.21 0.71,-26.18 2.19,-52.42 1.69,-78.65 -0.06,-1.86 -0.82,-4.65 1.64,-5.09 3.5,-0.6 2.62,3.12 2.89,4.7 4.54,26.34 9.35,52.63 14.92,78.81 6.07,28.48 11.43,57.11 17.71,85.54 8.31,37.77 17.27,75.43 27.11,112.86 11.43,43.51 22.41,87.12 33.61,130.69 9.67,37.66 19.51,75.31 29.19,113.03 7.6,29.46 15.14,58.98 22.57,88.49 0.98,3.94 2.57,5.46 7,5.46 32.35,-0.22 64.71,-0.22 97.07,0 4.7,0.06 6.23,-1.64 7.38,-5.9 5.79,-20.93 12.08,-41.76 17.98,-62.69 10.66,-37.88 21.1,-75.81 31.7,-113.74 10.33,-37.06 20.83,-74.06 31.15,-111.11 9.73,-34.98 19.62,-69.91 28.86,-104.99 9.18,-34.87 17.82,-69.91 26.45,-104.94 8.8,-35.91 17.6,-71.82 25.31,-107.94 0.6,-2.9 0.66,-6.45 3.72,-8.53 2.02,1.58 1.31,3.44 1.31,5.08 0.33,30.99 0.06,62.04 0.93,93.02 0.93,33.61 1.69,67.23 2.68,100.84 0.71,22.9 1.64,45.8 2.57,68.76 1.37,35.09 2.62,70.23 3.99,105.38 1.09,27.93 2.9,55.8 4.05,83.73 1.42,34.43 2.73,68.92 4.1,103.41 0.87,22.02 1.8,44.05 2.57,66.08 0.11,3.5 1.09,5.19 4.87,5.13 42.63,-0.05 85.26,-0.05 127.9,0 3.66,-0.05 5.02,-1.31 4.59,-5.13z"/>
  <path class="fil2" d="M3369.53 2122.39c-0.49,-41.98 -0.11,-83.95 -0.11,-125.93 0,0 -0.06,0 -0.06,0 0,-2.41 0.06,-4.81 0,-7.22 -1.2,-52.2 2.57,-104.45 -2.57,-156.59 -3.72,-37.88 -12.46,-74.22 -31.37,-107.56 -18.37,-32.35 -44.76,-55.75 -78.87,-70.67 -31.54,-13.78 -64.82,-18.69 -98.76,-18.86 -29.89,-0.16 -59.46,3.17 -88.76,9.84 -32.69,7.43 -63.83,18.69 -93.19,34.93 -5.41,3.01 -7.38,5.69 -5.41,12.46 8.42,29.02 15.96,58.26 23.78,87.5 0.98,3.61 1.59,5.03 5.96,2.35 18.26,-11.26 37.77,-19.89 58.27,-26.18 25.63,-7.87 51.87,-11.15 78.7,-10.11 13.83,0.55 27.27,2.35 40.17,7.6 15.91,6.5 28.37,16.67 36.29,32.19 9.13,17.98 11.92,37.11 11.86,57 0,4.1 -1.91,4.59 -5.19,4.54 -26.23,-0.22 -52.25,2.35 -78.1,6.4 -48.59,7.6 -94.28,22.41 -134.4,52.03 -23.83,17.54 -42.69,39.19 -55.75,65.59 -17,34.32 -23.34,71 -20.77,109.09 2.73,41.1 15.69,78.27 42.96,109.91 17.66,20.5 39.41,35.04 64.77,43.67 31.48,10.77 63.68,11.31 96.03,3.99 41.21,-9.34 74.61,-30.55 99.42,-64.93 0.98,-1.36 1.64,-3.39 3.88,-2.84 2.02,0.55 1.36,2.52 1.53,3.88 2.13,15.52 4.48,30.99 6.29,46.57 1.2,10.33 1.09,10.55 11.15,10.55 36.95,0 73.9,0 110.85,0 8.74,0 8.85,0 7.65,-8.74 -4.65,-33.29 -5.85,-66.9 -6.24,-100.46zm-140.35 -120.79c-0.87,16.89 1.58,36.95 -2.52,56.9 -8.09,39.24 -39.84,68.26 -79.74,72.64 -39.95,4.37 -67.77,-19.84 -73.89,-58.15 -3.5,-22.03 -2.41,-43.83 7.43,-64.55 9.13,-19.24 24.16,-32.25 42.8,-41.43 24.16,-11.92 50.07,-16.94 76.85,-18.58 7.38,-0.44 14.81,-0.93 22.19,-1.31 5.3,-0.27 7.22,1.09 7.05,6.78 -0.44,14.81 -0.16,29.68 -0.16,47.71z"/>
  <path class="fil2" d="M3603.08 2223.94c-0.17,-276.12 -0.17,-552.19 0,-828.31 0,-5.63 -1.2,-7.32 -7.16,-7.32 -42.19,0.27 -84.39,0.11 -126.58,0.16 -10.93,0 -9.51,-1.53 -9.51,9.19 -0.06,137.51 0,275.03 0,412.54 0,137.95 0.06,275.91 -0.11,413.8 0,5.8 1.15,7.76 7.43,7.76 42.63,-0.33 85.26,-0.28 127.9,0 6.17,0.05 8.04,-1.37 8.04,-7.82z"/>
  <path class="fil2" d="M3830.72 2231.75c5.85,0.06 7.27,-1.58 7.27,-7.32 -0.16,-276.23 -0.16,-552.52 0,-828.75 0,-5.57 -1.15,-7.38 -7.11,-7.32 -42.63,0.27 -85.26,0.27 -127.84,0 -6.45,-0.06 -8.36,1.26 -8.36,8.14 0.22,137.68 0.16,275.36 0.16,413.09 0,138.11 0.06,276.23 -0.11,414.4 0,5.8 1.2,7.87 7.49,7.87 42.8,-0.38 85.65,-0.38 128.5,-0.11z"/>
  <path class="fil2" d="M3023.89 2377.46c-8.09,0.22 -16.18,0.17 -24.27,0 -3.11,-0.05 -4.1,1.09 -4.26,4.1 -0.33,6.18 -1.09,12.3 -1.8,19.79 -5.19,-7.11 -9.56,-13.23 -15.96,-17.6 -27.38,-18.69 -67.77,-9.51 -87.06,17.93 -25.36,36.13 -27.82,75.15 -8.8,114.5 11.92,24.76 32.96,37.82 61.16,37.11 19.24,-0.49 34.65,-8.85 46.62,-24.27 0.6,9.24 0.66,18.04 -0.22,27 -2.57,27.6 -20,44.33 -47.6,44.43 -15.47,0.06 -30.39,-2.68 -44.11,-10.17 -4.26,-2.3 -5.57,-1.04 -6.5,3.12 -1.42,6.34 -3,12.73 -5.03,18.91 -1.26,3.83 -0.11,5.8 3.28,7.05 5.08,1.91 10,4.37 15.25,5.74 19.24,4.97 38.81,5.96 58.37,2.68 27.98,-4.7 47.66,-19.9 57.12,-47.17 5.08,-14.59 6.56,-29.79 6.83,-45.04 0.87,-51.1 -1.26,-102.26 1.26,-153.36 0.11,-3.22 -0.55,-4.8 -4.26,-4.75zm-36.18 117.89c-4.1,15.85 -15.57,26.62 -31.54,29.13 -15.09,2.35 -30.55,-4.37 -38.09,-18.42 -15.47,-28.48 -14.48,-57.28 1.8,-85.04 8.85,-15.03 25.36,-20.39 42.63,-15.85 13.44,3.56 25.69,19.35 26.45,34.76 0.39,7.81 0.06,15.69 0.06,23.56 -0.49,10.6 1.42,21.31 -1.31,31.86z"/>
  <path class="fil2" d="M3842.25 2550.61c-1.37,-8.36 -2.02,-16.83 -2.02,-25.36 0.05,-25.58 -0.17,-51.11 0.11,-76.69 0.11,-9.45 -1.04,-18.63 -2.95,-27.87 -4.7,-22.52 -17.76,-37.99 -39.96,-43.67 -23.39,-6.01 -46.67,-3.17 -69.03,5.96 -11.59,4.76 -11.54,5.03 -7.87,17.33 0.98,3.33 2.19,6.56 3.17,9.89 0.66,2.3 1.8,2.73 3.77,1.53 10.66,-6.61 22.57,-9.23 34.76,-10 26.12,-1.59 39.68,7.32 41.1,34.11 0.16,3 -0.28,4.97 -4.1,4.97 -4.76,0 -9.57,0.66 -14.32,0.93 -19.4,1.09 -37.93,5.25 -54.54,15.85 -22.79,14.48 -29.84,39.08 -24.54,61.27 9.13,37.93 47.17,46.57 76.85,33.5 8.91,-3.94 16.07,-10.17 23.12,-18.04 1.7,6.01 2.79,11.04 2.95,16.23 0.06,3 1.2,4.26 4.32,4.21 8.53,-0.17 17.05,-0.11 25.58,0 2.94,-0.11 4.26,-0.38 3.6,-4.16zm-45.37 -33.78c-8.36,10.88 -26.45,16.78 -39.41,12.24 -8.31,-2.9 -14.7,-11.91 -15.63,-20.72 -2.52,-23.72 10.38,-34.21 30.22,-39.41 8.91,-2.35 18.04,-2.57 27.11,-3.44 3.33,-0.33 4.76,0.87 4.65,4.43 -0.22,5.25 -0.05,10.49 -0.05,15.74 0.27,10.93 0.38,21.7 -6.89,31.15z"/>
  <path class="fil2" d="M3193.81 2375.61c-27.93,5.14 -45.96,23.06 -55.97,48.81 -8.69,22.35 -10.77,45.58 -5.46,69.36 7.11,32.03 25.47,53.24 57.66,61.65 14.54,3.77 29.41,2.79 44.11,1.53 10.39,-0.93 20.5,-3.67 30.33,-7.27 3.39,-1.26 5.74,-2.13 3.99,-6.83 -1.86,-5.03 -2.95,-10.49 -3.5,-15.85 -0.6,-5.63 -3.01,-5.41 -7.27,-3.83 -16.01,5.85 -32.41,7.93 -49.41,5.47 -26.35,-3.83 -39.9,-22.79 -42.31,-47.33 -0.49,-4.86 0.77,-6.83 6.23,-6.72 16.61,0.38 33.18,0.16 49.79,0.16 16.4,0 32.8,-0.27 49.14,0.17 5.96,0.16 7.43,-2.13 7.54,-7.54 0.22,-14.43 -0.82,-28.59 -4.86,-42.63 -11.2,-39.52 -42.58,-56.02 -80.02,-49.14zm35.2 72.53c-8.31,0 -16.61,0 -24.87,0 -10.93,0 -21.86,-0.11 -32.74,0.05 -4.21,0.06 -5.9,-0.76 -4.81,-5.57 2.3,-9.84 5.08,-19.46 11.37,-27.49 10.28,-13.12 23.83,-16.89 39.68,-12.63 15.03,4.04 21.15,15.96 24.32,29.62 3.72,15.91 3.33,16.02 -12.95,16.02z"/>
  <path class="fil2" d="M3466 2374.68c-18.15,-2.19 -31.43,5.8 -42.46,19.24 -3.88,4.76 -5.52,10.71 -9.13,15.69 -2.35,-1.86 -1.58,-4.21 -1.64,-6.29 -0.16,-7 -0.27,-13.99 -0.16,-20.99 0.06,-3.61 -1.2,-4.98 -4.92,-4.87 -7.43,0.22 -14.87,0.38 -22.25,-0.05 -4.87,-0.28 -6.01,1.64 -5.52,6.07 1.37,11.97 1.31,23.94 1.31,35.96 -0.05,43.01 0.06,86.03 -0.11,129.1 0,4.92 1.31,6.45 6.23,6.17 7.6,-0.38 15.3,-0.55 22.9,0.06 6.28,0.49 7.93,-1.37 7.98,-7.81 0.27,-32.74 -2.13,-65.54 1.15,-98.16 2.3,-22.96 18.59,-42.63 46.62,-38.75 3.99,0.55 4.32,-1.2 4.32,-4.26 -0.11,-8.74 -0.17,-17.49 0,-26.24 0.06,-3.28 -0.88,-4.43 -4.32,-4.87z"/>
  <path class="fil2" d="M3596.25 2377.41c-8.26,0.44 -16.62,0.49 -24.87,0 -5.52,-0.33 -6.45,1.86 -6.4,6.72 0.22,27.28 0.11,54.6 0.11,81.87 0,27.5 0.11,55.04 -0.11,82.53 -0.05,4.98 1.37,6.4 6.29,6.18 8.47,-0.38 17.05,-0.44 25.52,0 5.19,0.27 6.12,-1.75 6.07,-6.39 -0.22,-19.19 -0.11,-38.43 -0.11,-57.67 0,-35.58 -0.11,-71.16 0.11,-106.74 0,-5.19 -1.48,-6.72 -6.61,-6.5z"/>
  <path class="fil2" d="M3584.28 2307.89c-10.71,-1.31 -21.97,7.81 -21.81,21.43 0.11,12.24 9.29,21.59 21.31,21.7 12.35,0.11 21.59,-9.35 21.75,-21.86 0.17,-11.97 -9.84,-22.46 -21.26,-21.26z"/>
 </g>
</svg>
