<svg id="instagram-logo" xmlns="http://www.w3.org/2000/svg" width="21.459" height="21.459" viewBox="0 0 21.459 21.459">
  <path id="Path_423" data-name="Path 423" d="M15.537,0H5.922A5.929,5.929,0,0,0,0,5.922v9.615a5.928,5.928,0,0,0,5.922,5.922h9.615a5.929,5.929,0,0,0,5.922-5.922V5.922A5.928,5.928,0,0,0,15.537,0Zm4.018,15.537a4.022,4.022,0,0,1-4.018,4.018H5.922A4.022,4.022,0,0,1,1.9,15.537V5.922A4.022,4.022,0,0,1,5.922,1.9h9.615a4.023,4.023,0,0,1,4.018,4.018v9.615Z" fill="#4e4e4e"/>
  <path id="Path_424" data-name="Path 424" d="M46.5,40.97A5.529,5.529,0,1,0,52.027,46.5,5.536,5.536,0,0,0,46.5,40.97Zm0,9.154A3.625,3.625,0,1,1,50.123,46.5,3.629,3.629,0,0,1,46.5,50.124Z" transform="translate(-35.768 -35.77)" fill="#4e4e4e"/>
  <path id="Path_425" data-name="Path 425" d="M120.317,28.251a1.4,1.4,0,1,0,.988.409A1.4,1.4,0,0,0,120.317,28.251Z" transform="translate(-103.827 -24.665)" fill="#4e4e4e"/>
</svg>
