<svg xmlns="http://www.w3.org/2000/svg" width="82.623" height="27.413" viewBox="0 0 82.623 27.413">
  <g id="Layer_x0020_1" transform="translate(0)">
    <path id="Path_1" data-name="Path 1" d="M1197.36,1411.916a12.138,12.138,0,0,0-.5-1.14,12.39,12.39,0,0,0-1.411-2.289,8.322,8.322,0,0,0-2.405-2.054,12.908,12.908,0,0,0-1.822-.846c-.635-.243-1.28-.457-1.932-.649a.364.364,0,0,0-.219-.03c.335.6.665,1.2,1,1.788.346.619.7,1.232,1.019,1.865a9.833,9.833,0,0,1,.885,2.4,9.321,9.321,0,0,1,.189,2.02,15.741,15.741,0,0,1-.17,2.053c-.08.575-.183,1.147-.3,1.716a.185.185,0,0,1-.14.164,10.007,10.007,0,0,1-2.025.413,10.14,10.14,0,0,1-1.218.033,9.132,9.132,0,0,1-2.4-.362,9.39,9.39,0,0,1-1.838-.731,9.944,9.944,0,0,1-3.622-3.259,9.719,9.719,0,0,1-1.069-2.136,10.005,10.005,0,0,1-.537-2.463,9.13,9.13,0,0,1,.059-2.13,9.929,9.929,0,0,1,.557-2.18,9.815,9.815,0,0,1,2.8-3.954,9.542,9.542,0,0,1,2.191-1.408,10.011,10.011,0,0,1,2.1-.7,9.628,9.628,0,0,1,2.861-.187,9.457,9.457,0,0,1,2.33.487,9.811,9.811,0,0,1,3.562,2.158,9.636,9.636,0,0,1,1.663,2.075,9.914,9.914,0,0,1,1.188,3.04,9.727,9.727,0,0,1,.187,2.649,9.406,9.406,0,0,1-.584,2.728c-.119.3-.25.6-.4.931Z" transform="translate(-1154.47 -1397.358)" fill="#d82819" fill-rule="evenodd"/>
    <path id="Path_2" data-name="Path 2" d="M310.618,1643.008c0-1.693.006-3.387,0-5.081,0-.673-.023-1.348-.075-2.02-.01-.116,0-.165.144-.164.828.008,1.655.007,2.483,0,.122,0,.146.041.154.153.038.5.087.989.134,1.483,0,.03-.013.073.034.084s.056-.028.073-.055a4.014,4.014,0,0,1,1.185-1.243,3.868,3.868,0,0,1,1.439-.6,3.98,3.98,0,0,1,1.953.09,3.4,3.4,0,0,1,1.951,1.538,5.826,5.826,0,0,1,.74,2.233,6.143,6.143,0,0,1,.069.914q0,4.026,0,8.052c0,.118-.038.14-.146.14-.966,0-1.933,0-2.9,0-.124,0-.147-.041-.147-.154q.006-3.645,0-7.291a4.979,4.979,0,0,0-.178-1.444,1.766,1.766,0,0,0-1.019-1.262,1.659,1.659,0,0,0-1.2-.017,2.136,2.136,0,0,0-1.342,1.484,3.843,3.843,0,0,0-.141,1.158v7.334c0,.207.031.188-.194.188-.952,0-1.9,0-2.856,0-.128,0-.158-.035-.158-.16,0-1.789,0-3.578,0-5.368,0,0,0,0-.007,0Z" transform="translate(-305.203 -1629.834)" fill="#fff" fill-rule="evenodd"/>
    <path id="Path_3" data-name="Path 3" d="M826.918,1390.569q0,2.49,0,4.979c0,.116-.025.152-.147.152q-1.45-.007-2.9,0c-.123,0-.147-.038-.147-.153q.005-4.971,0-9.944c0-.183,0-.183-.185-.183-.431,0-.861,0-1.292,0-.09,0-.126-.019-.124-.118q.005-1.134,0-2.268c0-.1.032-.128.13-.127.445,0,.89,0,1.335,0,.1,0,.141-.019.139-.133a9.563,9.563,0,0,1,.085-1.686,5.173,5.173,0,0,1,1.2-2.787,3.824,3.824,0,0,1,1.768-1.109,5.515,5.515,0,0,1,2.379-.129,6.388,6.388,0,0,1,.834.191c.06.017.087.032.081.114-.053.757-.141,1.511-.207,2.266-.007.083.039.191-.036.241s-.147-.044-.225-.062a2.825,2.825,0,0,0-1.538-.022,1.489,1.489,0,0,0-.956,1.04,4.654,4.654,0,0,0-.213,1.35c-.006.2,0,.392-.02.587-.01.12.037.141.146.14.708,0,1.416,0,2.124,0,.114,0,.142.03.142.142q-.007,1.12,0,2.239c0,.113-.035.134-.138.133-.7,0-1.407,0-2.11,0-.116,0-.14.035-.14.144q.006,2.5,0,5.007Z" transform="translate(-805.598 -1377)" fill="#fff" fill-rule="evenodd"/>
    <path id="Path_4" data-name="Path 4" d="M66.722,1433.86q0-4.332,0-8.666c0-.129.031-.167.164-.165q1.441.007,2.884,0c.111,0,.142.027.142.141q0,8.681,0,17.362c0,.125-.041.147-.154.147q-1.435-.007-2.869,0c-.133,0-.166-.036-.165-.167q0-4.326,0-8.651Z" transform="translate(-66.72 -1423.978)" fill="#fff" fill-rule="evenodd"/>
    <path id="Path_5" data-name="Path 5" d="M2438.706,2310.136c-.015.244,0,.481,0,.716.012,1.148.008,2.3.015,3.443,0,.11-.032.14-.137.134a4.654,4.654,0,0,0-.488,0c-.1,0-.128-.032-.126-.13,0-.512,0-1.024,0-1.535q0-1.78,0-3.558c0-.119.029-.158.151-.152.211.01.421.006.632,0a.156.156,0,0,1,.159.09c.289.52.582,1.037.874,1.556.322.573.66,1.137.944,1.731.135.282.265.568.41.881-.018-.38-.034-.732-.051-1.082-.005-.1-.016-.19-.016-.286,0-.919,0-1.836,0-2.754,0-.109.03-.141.137-.135.172.009.344,0,.517,0,.067,0,.1.021.093.091,0,.029,0,.057,0,.086q0,2.51,0,5.021c0,.133-.023.188-.168.177a4.735,4.735,0,0,0-.546,0,.149.149,0,0,1-.156-.09c-.344-.621-.688-1.241-1.038-1.859-.318-.56-.628-1.123-.909-1.7-.081-.167-.151-.339-.227-.509l-.064-.136Z" transform="translate(-2386.078 -2288.658)" fill="#52c9fe" fill-rule="evenodd"/>
    <path id="Path_6" data-name="Path 6" d="M2729.29,2379.3c0-.593,0-1.187,0-1.78,0-.106.019-.154.14-.147a4.858,4.858,0,0,0,.559,0c.122-.007.127.052.127.146,0,.895,0,1.789,0,2.683,0,.306,0,.612,0,.918,0,.1-.021.136-.126.133q-.287-.012-.574,0c-.1,0-.127-.034-.127-.131C2729.292,2380.519,2729.29,2379.912,2729.29,2379.3Z" transform="translate(-2671.022 -2355.486)" fill="#52c9fe" fill-rule="evenodd"/>
    <path id="Path_7" data-name="Path 7" d="M2727.19,2307.78a.449.449,0,0,1,.473.472.473.473,0,1,1-.945-.013A.452.452,0,0,1,2727.19,2307.78Z" transform="translate(-2668.509 -2287.41)" fill="#52c9fe" fill-rule="evenodd"/>
    <path id="Path_8" data-name="Path 8" d="M2158.893,1442.714c-.065-.555-.071-1.115-.1-1.672-.036-.691-.085-1.381-.116-2.073-.039-.892-.091-1.783-.145-2.674-.036-.6-.067-1.193-.087-1.788-.024-.683-.083-1.362-.113-2.044-.038-.9-.1-1.793-.144-2.689-.039-.773-.072-1.545-.117-2.317-.042-.71-.083-1.421-.111-2.131-.006-.138-.057-.149-.17-.148-1.129,0-2.258,0-3.387,0-.326,0-.324,0-.41.312q-.367,1.342-.74,2.683c-.305,1.1-.627,2.186-.919,3.286s-.573,2.221-.833,3.337c-.225.969-.435,1.94-.619,2.917a.571.571,0,0,1-.116.337c-.011-.042-.017-.06-.021-.078-.142-.714-.271-1.431-.423-2.142q-.323-1.514-.686-3.02c-.215-.9-.451-1.789-.694-2.68-.218-.8-.428-1.609-.64-2.414s-.422-1.611-.632-2.416a.14.14,0,0,0-.158-.124q-1.83.005-3.66,0c-.087,0-.112.026-.115.114q-.022.522-.058,1.043c-.039.557-.087,1.112-.111,1.671-.015.367-.04.734-.063,1.1-.044.714-.092,1.428-.136,2.143-.023.367-.031.734-.067,1.1-.052.523-.067,1.048-.1,1.572-.027.39-.037.782-.063,1.172-.039.562-.087,1.123-.111,1.685-.016.353-.031.706-.063,1.057-.066.723-.093,1.447-.136,2.172-.021.367-.032.734-.068,1.1-.051.527-.062,1.057-.106,1.585-.01.112.033.135.137.135q1.292-.006,2.583,0c.123,0,.15-.044.155-.158.021-.6.051-1.2.078-1.8.042-.955.079-1.909.127-2.863.012-.233.012-.468.03-.7.072-.886.084-1.774.133-2.661.024-.425.039-.849.055-1.274.031-.841.066-1.68.089-2.521.015-.573.048-1.147.037-1.721,0-.041-.018-.1.036-.111.076-.013.057.068.063.1.1.576.2,1.152.326,1.724.133.623.25,1.25.388,1.872.182.827.378,1.651.593,2.47.25.952.49,1.906.735,2.86.211.824.427,1.648.639,2.474q.249.967.494,1.936a.132.132,0,0,0,.153.12q1.062-.007,2.124,0c.1,0,.136-.036.162-.129.127-.458.264-.914.393-1.372.233-.829.461-1.659.694-2.489.226-.811.456-1.621.682-2.431.213-.766.429-1.53.632-2.3s.39-1.53.579-2.3c.193-.786.385-1.572.554-2.362.013-.063.015-.141.082-.187.044.035.029.075.029.111.007.678,0,1.358.021,2.036.02.735.037,1.471.058,2.207.016.5.036,1,.056,1.5.03.768.057,1.537.087,2.306.024.611.063,1.221.088,1.832q.047,1.13.09,2.263c.02.482.04.964.057,1.446,0,.077.024.114.106.112q1.4,0,2.8,0c.08,0,.11-.029.1-.112Z" transform="translate(-2097.221 -1424.123)" fill="#52c9fe" fill-rule="evenodd"/>
    <path id="Path_9" data-name="Path 9" d="M2940.3,1646.208c-.011-.919,0-1.837,0-2.756h0c0-.053,0-.105,0-.158-.026-1.142.056-2.286-.056-3.427a5.843,5.843,0,0,0-.687-2.354,3.579,3.579,0,0,0-1.726-1.547,5.4,5.4,0,0,0-2.161-.413,8.488,8.488,0,0,0-1.942.215,7.715,7.715,0,0,0-2.04.764.2.2,0,0,0-.118.273c.184.635.349,1.275.52,1.915.021.079.035.11.13.051a5.491,5.491,0,0,1,1.275-.573,5.156,5.156,0,0,1,1.722-.221,2.566,2.566,0,0,1,.879.167,1.473,1.473,0,0,1,.794.7,2.673,2.673,0,0,1,.26,1.248c0,.09-.042.1-.114.1a10.429,10.429,0,0,0-1.709.14,6.518,6.518,0,0,0-2.941,1.138,3.934,3.934,0,0,0-1.22,1.435,4.593,4.593,0,0,0-.455,2.387,3.97,3.97,0,0,0,.94,2.405,3.2,3.2,0,0,0,1.417.956,3.792,3.792,0,0,0,2.1.087,3.558,3.558,0,0,0,2.176-1.421c.022-.03.036-.074.085-.062s.03.055.033.085c.047.34.1.678.138,1.019.026.226.024.231.244.231h2.426c.191,0,.194,0,.167-.191a17.277,17.277,0,0,1-.137-2.2Zm-3.071-2.643a7.64,7.64,0,0,1-.055,1.245,1.992,1.992,0,0,1-1.745,1.59,1.408,1.408,0,0,1-1.617-1.272,2.352,2.352,0,0,1,.163-1.413,1.928,1.928,0,0,1,.937-.907,4.338,4.338,0,0,1,1.682-.406c.161-.01.324-.021.485-.029.116-.006.158.024.155.148-.01.324,0,.65,0,1.044Z" transform="translate(-2868.026 -1629.896)" fill="#52c9fe" fill-rule="evenodd"/>
    <path id="Path_10" data-name="Path 10" d="M3462.857,1406.6q-.005-9.063,0-18.126c0-.123-.026-.16-.157-.16-.923.006-1.847,0-2.77,0-.239,0-.208-.033-.208.2q0,4.514,0,9.028t0,9.055c0,.127.025.17.162.17q1.4-.011,2.8,0C3462.816,1406.768,3462.857,1406.737,3462.857,1406.6Z" transform="translate(-3385.471 -1388.062)" fill="#52c9fe" fill-rule="evenodd"/>
    <path id="Path_11" data-name="Path 11" d="M3697.656,1406.814c.128,0,.159-.035.159-.16q-.005-9.067,0-18.135c0-.122-.025-.161-.156-.16q-1.4.009-2.8,0c-.141,0-.183.027-.183.178q.007,4.519,0,9.04t0,9.068c0,.127.026.172.164.172Q3696.25,1406.8,3697.656,1406.814Z" transform="translate(-3615.289 -1388.11)" fill="#52c9fe" fill-rule="evenodd"/>
    <path id="Path_12" data-name="Path 12" d="M2872.613,2374.029c-.177,0-.354,0-.531,0-.068,0-.09.024-.093.09-.007.135-.024.269-.039.433a1.51,1.51,0,0,0-.35-.385,1.423,1.423,0,0,0-1.905.392,2.345,2.345,0,0,0-.192,2.506,1.359,1.359,0,0,0,1.338.812,1.281,1.281,0,0,0,1.02-.531,3.612,3.612,0,0,1,0,.591.984.984,0,0,1-1.042.972,1.962,1.962,0,0,1-.965-.222c-.094-.051-.122-.023-.143.068-.031.139-.065.279-.11.414a.1.1,0,0,0,.072.154,3.461,3.461,0,0,0,.334.126,3.048,3.048,0,0,0,1.277.058,1.49,1.49,0,0,0,1.25-1.032,3.134,3.134,0,0,0,.149-.986c.019-1.118-.027-2.238.028-3.356,0-.07-.012-.1-.093-.1Zm-.792,2.58a.826.826,0,0,1-.69.637.8.8,0,0,1-.833-.4,1.792,1.792,0,0,1,.04-1.861.8.8,0,0,1,.933-.347.877.877,0,0,1,.579.761c.009.171,0,.344,0,.516A3.35,3.35,0,0,1,2871.822,2376.608Z" transform="translate(-2807.902 -2352.135)" fill="#52c9fe" fill-rule="evenodd"/>
    <path id="Path_13" data-name="Path 13" d="M3707.178,2377.719a3.451,3.451,0,0,1-.044-.555c0-.56,0-1.118,0-1.678a2.815,2.815,0,0,0-.065-.61,1.152,1.152,0,0,0-.875-.956,2.369,2.369,0,0,0-1.51.131c-.254.1-.253.11-.172.379.021.073.047.144.069.217.015.05.04.06.083.033a1.6,1.6,0,0,1,.761-.219c.572-.035.869.16.9.746,0,.066-.006.109-.09.109-.1,0-.209.014-.313.021a2.416,2.416,0,0,0-1.193.347,1.215,1.215,0,0,0-.537,1.341,1.158,1.158,0,0,0,1.682.733,1.491,1.491,0,0,0,.506-.395,1.452,1.452,0,0,1,.064.355c0,.065.026.093.095.092.187,0,.373,0,.56,0,.064,0,.093-.008.079-.091Zm-.993-.74a.838.838,0,0,1-.862.268.559.559,0,0,1-.342-.454c-.055-.519.228-.749.662-.862a3.651,3.651,0,0,1,.593-.075c.073-.007.1.019.1.1,0,.115,0,.229,0,.344A1,1,0,0,1,3706.185,2376.979Z" transform="translate(-3624.558 -2352.037)" fill="#52c9fe" fill-rule="evenodd"/>
    <path id="Path_14" data-name="Path 14" d="M3130.889,2374.133a1.585,1.585,0,0,0-1.225,1.068,2.569,2.569,0,0,0-.119,1.518,1.649,1.649,0,0,0,1.261,1.349,2.844,2.844,0,0,0,.965.034,2.63,2.63,0,0,0,.664-.159c.074-.028.125-.047.087-.15a1.4,1.4,0,0,1-.077-.347c-.013-.123-.066-.119-.159-.084a2.187,2.187,0,0,1-1.081.12,1.059,1.059,0,0,1-.926-1.036c-.011-.106.017-.149.136-.147.364.009.726,0,1.09,0s.718-.006,1.075,0c.13,0,.163-.046.165-.165a3.157,3.157,0,0,0-.106-.933A1.426,1.426,0,0,0,3130.889,2374.133Zm.771,1.587h-.544c-.239,0-.478,0-.716,0-.092,0-.129-.016-.1-.122a1.5,1.5,0,0,1,.249-.6.78.78,0,0,1,1.4.371C3132.024,2375.718,3132.016,2375.72,3131.659,2375.72Z" transform="translate(-3062.459 -2352.281)" fill="#52c9fe" fill-rule="evenodd"/>
    <path id="Path_15" data-name="Path 15" d="M3381.7,2374.328a.993.993,0,0,0-.929.421c-.085.1-.121.234-.2.343-.051-.041-.034-.092-.036-.137,0-.153-.006-.306,0-.459,0-.079-.026-.109-.107-.106-.163,0-.326.008-.487,0-.106-.006-.131.036-.121.133a6.824,6.824,0,0,1,.028.787c0,.941,0,1.883,0,2.825,0,.108.028.142.136.135a3.854,3.854,0,0,1,.5,0c.138.011.173-.03.175-.171.005-.717-.047-1.434.025-2.148a.874.874,0,0,1,1.021-.848c.087.012.094-.026.094-.093,0-.191,0-.383,0-.574C3381.8,2374.363,3381.777,2374.338,3381.7,2374.328Z" transform="translate(-3307.316 -2352.496)" fill="#52c9fe" fill-rule="evenodd"/>
    <path id="Path_16" data-name="Path 16" d="M3565.662,2377.378a4.822,4.822,0,0,1-.544,0c-.121-.007-.141.041-.14.147,0,.6,0,1.195,0,1.792s0,1.2,0,1.806c0,.109.03.14.138.135.185-.008.373-.01.558,0,.114.006.134-.038.133-.14,0-.42,0-.841,0-1.262,0-.779,0-1.557,0-2.336C3565.807,2377.406,3565.774,2377.373,3565.662,2377.378Z" transform="translate(-3488.426 -2355.486)" fill="#52c9fe" fill-rule="evenodd"/>
    <path id="Path_17" data-name="Path 17" d="M3562.945,2307.768a.447.447,0,0,0-.477.469.471.471,0,1,0,.942,0,.448.448,0,0,0-.465-.465Z" transform="translate(-3485.971 -2287.397)" fill="#52c9fe" fill-rule="evenodd"/>
  </g>
</svg>
