<svg id="twitter_2_" data-name="twitter (2)" xmlns="http://www.w3.org/2000/svg" width="27.242" height="22.134" viewBox="0 0 27.242 22.134">
  <path id="twitter_2_2" data-name="twitter (2)" d="M27.242,50.62a11.644,11.644,0,0,1-3.218.882,5.554,5.554,0,0,0,2.457-3.087,11.161,11.161,0,0,1-3.541,1.352,5.584,5.584,0,0,0-9.661,3.819,5.751,5.751,0,0,0,.129,1.274A15.808,15.808,0,0,1,1.9,49.018a5.586,5.586,0,0,0,1.716,7.464,5.515,5.515,0,0,1-2.523-.688v.061a5.611,5.611,0,0,0,4.475,5.488,5.574,5.574,0,0,1-1.464.184,4.938,4.938,0,0,1-1.057-.1,5.638,5.638,0,0,0,5.219,3.891A11.222,11.222,0,0,1,1.337,67.7,10.461,10.461,0,0,1,0,67.628a15.723,15.723,0,0,0,8.568,2.506,15.786,15.786,0,0,0,15.9-15.892c0-.247-.009-.485-.02-.722A11.141,11.141,0,0,0,27.242,50.62Z" transform="translate(0 -48)" fill="#4e4e4e"/>
</svg>
